<?xml version="1.0" encoding="UTF-8"?>
<svg id="Layer_1" xmlns="http://www.w3.org/2000/svg" version="1.1" viewBox="0 0 1080 970">
  <!-- Generator: Adobe Illustrator 30.4.0, SVG Export Plug-In . SVG Version: 2.1.4 Build 226)  -->
  <defs>
    <style>
      .st0 {
        fill: #c1d500;
      }

      .st1 {
        fill: #b8d400;
      }

      .st2 {
        fill: #fff;
      }

      .st3 {
        fill: none;
        stroke: #fff;
        stroke-miterlimit: 10;
      }

      .st4 {
        fill: #d9a800;
      }

      .st5 {
        fill: #c8cacb;
      }

      .st6 {
        fill: #ffcf00;
      }

      .st7 {
        fill: #1d151a;
      }

      .st8 {
        fill: #0b1c36;
      }
    </style>
  </defs>
  <g>
    <polygon class="st6" points="991.81 955.87 97.48 955.87 119.87 893.47 97.48 834.25 991.81 834.25 969.43 893.47 991.81 955.87"/>
    <g>
      <path d="M287.34,910.79l12.38-1.21c.74,4.16,2.26,7.21,4.54,9.16,2.27,1.95,5.35,2.92,9.22,2.92,4.1,0,7.18-.87,9.27-2.6,2.08-1.73,3.11-3.76,3.11-6.08,0-1.49-.44-2.76-1.31-3.8-.87-1.04-2.4-1.95-4.58-2.73-1.49-.52-4.89-1.44-10.19-2.76-6.82-1.69-11.6-3.76-14.35-6.23-3.87-3.47-5.81-7.7-5.81-12.68,0-3.21.91-6.21,2.73-9s4.44-4.92,7.86-6.38c3.42-1.46,7.56-2.19,12.4-2.19,7.91,0,13.86,1.73,17.86,5.2,4,3.46,6.1,8.09,6.29,13.88l-12.72.56c-.55-3.24-1.71-5.56-3.5-6.98s-4.48-2.13-8.06-2.13-6.59.76-8.68,2.28c-1.35.97-2.02,2.28-2.02,3.91,0,1.49.63,2.77,1.89,3.83,1.6,1.35,5.5,2.75,11.69,4.21,6.19,1.46,10.77,2.97,13.73,4.53,2.97,1.56,5.29,3.7,6.96,6.41,1.68,2.71,2.51,6.05,2.51,10.03,0,3.61-1,6.99-3.01,10.15-2.01,3.15-4.84,5.5-8.51,7.03-3.67,1.53-8.24,2.3-13.71,2.3-7.97,0-14.08-1.84-18.35-5.52-4.27-3.68-6.82-9.05-7.65-16.09Z"/>
      <path d="M362.3,931.29v-63.01h46.72v10.66h-34v13.97h31.63v10.62h-31.63v17.15h35.2v10.61h-47.92Z"/>
      <path d="M490.86,931.29h-13.84l-5.5-14.31h-25.18l-5.2,14.31h-13.5l24.54-63.01h13.45l25.23,63.01ZM467.43,906.36l-8.68-23.38-8.51,23.38h17.19Z"/>
      <path d="M507.41,910.79l12.38-1.21c.74,4.16,2.26,7.21,4.54,9.16,2.27,1.95,5.35,2.92,9.22,2.92,4.1,0,7.18-.87,9.27-2.6,2.08-1.73,3.11-3.76,3.11-6.08,0-1.49-.44-2.76-1.31-3.8-.87-1.04-2.4-1.95-4.58-2.73-1.49-.52-4.89-1.44-10.19-2.76-6.82-1.69-11.6-3.76-14.35-6.23-3.87-3.47-5.81-7.7-5.81-12.68,0-3.21.91-6.21,2.73-9s4.44-4.92,7.86-6.38c3.42-1.46,7.56-2.19,12.4-2.19,7.91,0,13.86,1.73,17.86,5.2,4,3.46,6.1,8.09,6.29,13.88l-12.72.56c-.55-3.24-1.71-5.56-3.5-6.98s-4.48-2.13-8.06-2.13-6.59.76-8.68,2.28c-1.35.97-2.02,2.28-2.02,3.91,0,1.49.63,2.77,1.89,3.83,1.6,1.35,5.5,2.75,11.69,4.21,6.19,1.46,10.77,2.97,13.73,4.53,2.97,1.56,5.29,3.7,6.96,6.41,1.68,2.71,2.51,6.05,2.51,10.03,0,3.61-1,6.99-3.01,10.15-2.01,3.15-4.84,5.5-8.51,7.03-3.67,1.53-8.24,2.3-13.71,2.3-7.97,0-14.08-1.84-18.35-5.52-4.27-3.68-6.82-9.05-7.65-16.09Z"/>
      <path d="M579.78,900.17c0-6.42.96-11.8,2.88-16.16,1.43-3.21,3.39-6.09,5.87-8.64,2.48-2.55,5.19-4.44,8.14-5.67,3.93-1.66,8.45-2.49,13.58-2.49,9.28,0,16.71,2.88,22.28,8.64,5.57,5.76,8.36,13.77,8.36,24.03s-2.77,18.13-8.29,23.87c-5.53,5.75-12.93,8.62-22.18,8.62s-16.82-2.86-22.35-8.58c-5.53-5.72-8.3-13.59-8.3-23.62ZM592.9,899.74c0,7.13,1.64,12.54,4.94,16.22,3.3,3.69,7.48,5.53,12.55,5.53s9.23-1.83,12.48-5.48c3.25-3.65,4.88-9.13,4.88-16.44s-1.58-12.61-4.75-16.16c-3.16-3.55-7.37-5.33-12.61-5.33s-9.47,1.8-12.68,5.39c-3.21,3.6-4.81,9.02-4.81,16.27Z"/>
      <path d="M663.99,931.29v-63.01h12.37l25.79,42.07v-42.07h11.82v63.01h-12.76l-25.4-41.09v41.09h-11.82Z"/>
      <path d="M816.06,920.07v11.22h-42.34c.46-4.24,1.84-8.26,4.13-12.05,2.29-3.79,6.82-8.83,13.58-15.11,5.45-5.07,8.78-8.51,10.01-10.32,1.66-2.49,2.49-4.95,2.49-7.39,0-2.69-.72-4.76-2.17-6.21s-3.44-2.17-6-2.17-4.53.76-6.01,2.28c-1.49,1.52-2.35,4.04-2.58,7.56l-12.03-1.21c.71-6.64,2.96-11.42,6.75-14.31,3.78-2.89,8.51-4.34,14.19-4.34,6.21,0,11.1,1.67,14.65,5.03,3.55,3.35,5.33,7.52,5.33,12.5,0,2.84-.51,5.54-1.53,8.1s-2.63,5.25-4.83,8.06c-1.46,1.86-4.1,4.54-7.91,8.04-3.81,3.5-6.22,5.82-7.24,6.96-1.02,1.15-1.85,2.26-2.47,3.35h23.98Z"/>
    </g>
  </g>
  <g>
    <path class="st8" d="M935.63,409.75c0,218.5-177.13,395.63-395.62,395.63s-395.62-177.13-395.62-395.63S321.51,14.13,540,14.13s395.62,177.13,395.62,395.62"/>
    <path class="st3" d="M935.63,409.75c0,218.5-177.13,395.63-395.62,395.63s-395.62-177.13-395.62-395.63S321.51,14.13,540,14.13s395.62,177.13,395.62,395.62Z"/>
    <path class="st4" d="M539.52,115.54c-162.15-.22-294.36,132.19-294.33,294.76.03,162.73,131.7,293.84,294.92,293.66,163.18-.19,294.62-131.4,294.72-294.21.12-161.91-132.46-293.99-295.31-294.2M570.13,133.3c.06,2.61.14,5.22.21,7.83h-56.22c-.22-2.61-.43-5.22-.65-7.83h56.66ZM468.76,194.68c3.28,3.42,12.73,8.94,14.86,16.52,3.52,12.53-18.37,30.65-35.52,28.45-7.89-1.02-18.77-8.52-21.18-15.53-4.05-11.75,18.55-28.91,41.83-29.44M362,189.81c3.44,3.32,6.88,6.64,10.32,9.95-12.89,13.58-25.77,27.16-38.66,40.73-3.86-3.71-7.72-7.42-11.58-11.13,13.31-13.18,26.61-26.37,39.92-39.56M263.1,435.51v-57.81c15.71,18.15,16.41,35.87,0,57.81M362.19,625.35c-13.44-13.27-26.87-26.54-40.31-39.81,2.94-3,5.88-5.99,8.82-8.98,13.18,13.61,26.35,27.22,39.52,40.82-2.67,2.66-5.36,5.31-8.04,7.96M326.04,487.58c.88-7.62,8.4-18.57,15.09-20.53,13.1-3.83,28.51,16.72,28.56,41.29-3.03,2.96-8.38,12.5-15.68,14.36-13.07,3.34-30.03-17.36-27.97-35.12M339.7,362.86c-5.95-7.26-16.43-14.22-16.92-21.84-1.1-16.88,6.84-32.86,25.48-35.11,6.27-.76,14.01,10.62,26.76,21.13-14.71,14.92-25.01,25.37-35.31,35.82M401.86,415.46c.87-17,8.78-30.5,27.58-31.07,18.98-.58,26.47,12.75,29.17,28.18.58,17.97-11.99,32.15-27.56,32.52-15.33.36-30.01-13.56-29.19-29.63M492.33,610.53c-2.09,8.14-11.96,14.29-22.83,26.23-14.38-14.49-24.91-25.11-35.44-35.73,7.66-5.85,14.73-15.42,23.12-16.76,15.8-2.52,38.11,14.83,35.16,26.26M537.19,272.28c15.44.5,26.61,9.65,28.51,27.59,1.59,14.99-13.31,28.82-29.9,28.81-18.16,0-29.31-9.51-31.3-27.4-1.62-14.57,13.8-28.52,32.7-29M510.23,686.56c0-2.53,0-5.06,0-7.59h55.18c.14,2.53.28,5.06.42,7.59h-55.59ZM544.02,547.59c-16.97-.23-31.79-13.32-30.16-28.36,1.93-17.9,13.59-27.25,31.17-28.02,15.94-.7,30.68,13.91,30.36,28.74-.32,15.09-14.83,27.88-31.36,27.65M587.42,208.67c2.14-6.82,13.09-14.14,20.91-15.24,18.01-2.52,39.87,13.96,36.44,26.56-2.05,7.52-11.63,13-14.65,16.1-23.86.55-46.5-15.36-42.71-27.42M616.88,624.25c-7.77-1.13-18.46-8.87-20.62-15.85-3.73-12.04,18.93-28.9,41.88-28.94,3.31,3.54,12.73,9.19,14.82,16.84,3.35,12.27-19.29,30.4-36.08,27.94M647.95,435.62c-18.71-1.87-26.47-14.38-26.55-31.78-.06-16.59,14.34-30.17,29.44-29.15,14.73.99,27.76,16.49,27.12,32.26-.67,16.45-14.49,30.21-30.01,28.67M718.4,630.81c-3.64-3.57-7.28-7.14-10.92-10.7,12.89-13.49,25.77-26.98,38.66-40.47,3.88,3.77,7.76,7.54,11.64,11.31-13.13,13.29-26.26,26.57-39.38,39.87M737.98,353.99c-12.49,3.04-29.66-19.32-27.13-36.37,1.15-7.71,8.74-18.63,15.48-20.46,12.55-3.41,28.2,18.71,27.81,42.55-3.16,2.98-8.73,12.47-16.17,14.29M757.55,471.42c.62,25.09-14.68,46.67-27.43,42.99-6.85-1.97-15.11-13.04-15.53-20.42-.98-16.82,5.79-33.27,24.79-35.54,6.53-.79,14.47,10.14,18.17,12.97M746.29,246.39c-13.15-13.38-26.29-26.77-39.44-40.15,3.42-3.55,6.85-7.11,10.27-10.67,13.64,13.03,27.28,26.06,40.93,39.09-3.92,3.91-7.84,7.83-11.76,11.73M815.77,384.32v58.18c-15.08-19.01-15.56-36.45,0-58.18"/>
    <path class="st0" d="M841.03,409.75h-2.36c0,82.48-33.42,157.13-87.47,211.19-54.06,54.05-128.71,87.47-211.19,87.47s-157.14-33.42-211.19-87.47c-54.05-54.06-87.47-128.71-87.48-211.19,0-82.48,33.43-157.13,87.48-211.19,54.05-54.05,128.7-87.47,211.19-87.47s157.13,33.42,211.19,87.47c54.05,54.06,87.47,128.71,87.47,211.19h4.71c0-167.55-135.82-303.37-303.37-303.37S236.64,242.2,236.64,409.75s135.82,303.37,303.37,303.37,303.37-135.82,303.37-303.37h-2.36Z"/>
    <path class="st0" d="M834.82,409.75c0,162.82-131.99,294.81-294.81,294.81s-294.81-131.99-294.81-294.81S377.19,114.94,540.01,114.94s294.81,131.99,294.81,294.81"/>
    <path class="st1" d="M834.83,409.74c0,162.82-132,294.83-294.82,294.83s-294.82-132-294.82-294.83c0-125.26,78.07-232.25,188.21-274.98-41.59,40.34-67.41,96.83-67.41,159.35,0,122.65,99.38,222.08,222.03,222.08s222.03-99.43,222.03-222.08c0-.98,0-1.96-.06-2.94,15.99,36.32,24.85,76.39,24.85,118.57"/>
    <path class="st2" d="M593.44,283.25c0,24.39-19.77,44.16-44.16,44.16s-44.16-19.77-44.16-44.16,19.77-44.16,44.16-44.16,44.16,19.77,44.16,44.16"/>
    <path class="st2" d="M396.29,222.85c9.98,9.98,4.09,32.05-13.16,49.29-17.24,17.25-39.31,23.14-49.29,13.16-9.98-9.98-4.09-32.05,13.16-49.29,17.25-17.25,39.32-23.14,49.29-13.16"/>
    <path class="st2" d="M307.85,386.56c14.1-.58,26.34,18.7,27.35,43.07,1.01,24.37-9.61,44.59-23.71,45.18-14.1.58-26.34-18.7-27.35-43.07-1.01-24.37,9.61-44.59,23.71-45.18"/>
    <path class="st2" d="M372.6,558.93c8.67-11.14,31.3-8.01,50.54,6.97,19.24,14.98,27.81,36.15,19.14,47.29-8.66,11.14-31.3,8.01-50.54-6.97-19.24-14.98-27.81-36.15-19.14-47.29"/>
    <path class="st2" d="M694.6,207.87c-9.98,9.98-4.09,32.05,13.16,49.29,17.24,17.25,39.31,23.14,49.29,13.16,9.98-9.98,4.09-32.05-13.16-49.29-17.25-17.25-39.32-23.14-49.29-13.16"/>
    <path class="st2" d="M502.4,152.76c0,14.11,19.77,25.55,44.16,25.55s44.16-11.44,44.16-25.55-19.78-25.55-44.16-25.55-44.16,11.44-44.16,25.55"/>
    <path class="st2" d="M502.4,636.39c0,14.11,19.77,25.55,44.16,25.55s44.16-11.44,44.16-25.55-19.78-25.55-44.16-25.55-44.16,11.44-44.16,25.55"/>
    <path class="st2" d="M783.05,386.56c-14.1-.58-26.34,18.7-27.35,43.07-1.01,24.37,9.61,44.59,23.71,45.18,14.1.58,26.34-18.7,27.35-43.07,1.01-24.37-9.61-44.59-23.71-45.18"/>
    <path class="st2" d="M718.29,558.93c-8.67-11.14-31.3-8.01-50.54,6.97-19.24,14.98-27.81,36.15-19.14,47.29,8.66,11.14,31.3,8.01,50.54-6.97,19.24-14.98,27.81-36.15,19.14-47.29"/>
    <path class="st2" d="M482.64,453.99c0,24.39-19.77,44.16-44.16,44.16s-44.16-19.77-44.16-44.16,19.77-44.16,44.16-44.16,44.16,19.77,44.16,44.16"/>
    <path class="st2" d="M701.83,453.99c0,24.39-19.77,44.16-44.16,44.16s-44.16-19.77-44.16-44.16,19.77-44.16,44.16-44.16,44.16,19.77,44.16,44.16"/>
    <path class="st7" d="M588,294.13c0,24.39-19.77,44.16-44.16,44.16s-44.16-19.77-44.16-44.16,19.77-44.16,44.16-44.16,44.16,19.77,44.16,44.16"/>
    <path class="st7" d="M390.85,233.72c9.98,9.98,4.09,32.05-13.16,49.29-17.24,17.25-39.31,23.14-49.29,13.16-9.98-9.98-4.09-32.05,13.16-49.29,17.25-17.25,39.32-23.14,49.29-13.16"/>
    <path class="st7" d="M302.41,397.43c14.1-.58,26.34,18.7,27.35,43.07,1.01,24.37-9.61,44.59-23.71,45.18-14.1.58-26.34-18.7-27.35-43.07-1.01-24.37,9.61-44.59,23.71-45.18"/>
    <path class="st7" d="M367.16,569.81c8.67-11.14,31.3-8.01,50.54,6.97,19.24,14.98,27.81,36.15,19.14,47.29-8.67,11.14-31.3,8.01-50.54-6.97-19.24-14.98-27.81-36.15-19.14-47.29"/>
    <path class="st7" d="M689.17,218.74c-9.98,9.98-4.09,32.05,13.16,49.29,17.24,17.25,39.31,23.14,49.29,13.16,9.98-9.98,4.09-32.05-13.16-49.29-17.25-17.25-39.32-23.14-49.29-13.16"/>
    <path class="st7" d="M496.96,163.63c0,14.11,19.77,25.55,44.16,25.55s44.16-11.44,44.16-25.55-19.77-25.55-44.16-25.55-44.16,11.44-44.16,25.55"/>
    <path class="st7" d="M496.96,647.26c0,14.11,19.77,25.55,44.16,25.55s44.16-11.44,44.16-25.55-19.77-25.55-44.16-25.55-44.16,11.44-44.16,25.55"/>
    <path class="st7" d="M777.61,397.43c-14.1-.58-26.34,18.7-27.35,43.07-1.01,24.37,9.61,44.59,23.71,45.18,14.1.58,26.34-18.7,27.35-43.07,1.01-24.37-9.61-44.59-23.71-45.18"/>
    <path class="st7" d="M712.86,569.81c-8.67-11.14-31.3-8.01-50.54,6.97-19.24,14.98-27.81,36.15-19.14,47.29,8.66,11.14,31.3,8.01,50.54-6.97,19.24-14.98,27.81-36.15,19.14-47.29"/>
    <path class="st7" d="M477.2,464.86c0,24.39-19.77,44.16-44.16,44.16s-44.16-19.77-44.16-44.16,19.78-44.16,44.16-44.16,44.16,19.77,44.16,44.16"/>
    <path class="st7" d="M696.39,464.86c0,24.39-19.77,44.16-44.16,44.16s-44.16-19.77-44.16-44.16,19.78-44.16,44.16-44.16,44.16,19.77,44.16,44.16"/>
    <polygon class="st8" points="43.55 342.17 1006.53 247.87 977.44 444.82 1053.06 433.31 1035.61 569.91 46.67 664.78 70.87 464.62 26.95 473.45 43.55 342.17"/>
    <polygon class="st2" points="43.55 342.17 43.78 344.51 1003.75 250.51 974.64 447.62 1050.33 436.11 1033.51 567.75 49.36 662.16 73.6 461.66 29.7 470.49 45.88 342.47 43.55 342.17 43.78 344.51 43.55 342.17 41.21 341.88 24.21 476.4 68.14 467.56 43.98 667.41 1037.71 572.08 1055.79 430.52 980.23 442.01 1009.3 245.24 41.45 340.01 41.21 341.88 43.55 342.17"/>
    <polygon class="st2" points="67.15 427.85 76.34 370.62 255.35 352.65 245.78 409.91 194.2 415.1 160.63 618.72 88.57 625.96 121.77 422.36 67.15 427.85"/>
    <polygon class="st2" points="224.34 612.33 266.72 351.51 344.84 343.67 365.91 496.2 391.49 338.99 457.1 332.4 414.33 593.25 337.73 600.94 315.6 449.23 289.94 605.74 224.34 612.33"/>
    <path class="st2" d="M444.67,590.21l42.27-260.8,106.01-10.65c21.71-2.18,38.03.35,48.95,7.56,10.93,7.22,17.28,19.76,19.08,37.64.28,2.82.51,5.06.67,6.7.19,1.88.33,3.29.43,4.23.26,2.59.18,5.56-.25,8.93-.43,3.37-.68,5.9-.77,7.56-4.05,25.83-14.69,46.37-31.92,61.65-17.24,15.27-40.4,24.37-69.47,27.28l-26.55,2.67-16.02,99.96c-.25.03-3.41.35-9.48.95-6.07.61-10.62,1.07-13.65,1.37-3.55.36-6.33.63-8.35.84-3.29.32-5.69.57-7.21.72-2.78.28-4.93.5-6.44.65-2.28.22-4.05.4-5.31.53-2.03.2-3.54.35-4.55.45-4.3.43-7.78.78-10.43,1.05-2.65.27-4.99.5-7.01.71M557.47,431.72c4.8-.48,9.82-2.64,15.06-6.47,7.62-5.49,12.61-14.25,14.98-26.3.79-4.8,1.04-8.72.74-11.76-1.27-12.62-7.84-18.34-19.73-17.15l-17.06,1.71-9.91,61.58,15.93-1.6Z"/>
    <path class="st2" d="M646.8,569.91l42.27-260.8,106.01-10.65c21.71-2.18,38.03.35,48.95,7.56,10.93,7.22,17.28,19.76,19.08,37.64.28,2.82.5,5.06.67,6.7.19,1.88.33,3.29.43,4.23.26,2.59.18,5.56-.25,8.93-.43,3.37-.68,5.9-.77,7.56-4.05,25.83-14.69,46.37-31.92,61.65-17.24,15.27-40.4,24.36-69.47,27.28l-26.55,2.67-16.02,99.96c-.25.03-3.41.35-9.48.95-6.07.61-10.62,1.07-13.65,1.37-3.55.36-6.33.63-8.35.84-3.29.33-5.69.58-7.21.73-2.78.28-4.93.49-6.44.65-2.28.22-4.05.4-5.31.53-2.03.21-3.54.36-4.55.46-4.3.43-7.78.78-10.43,1.05-2.65.27-4.99.5-7.01.71M759.6,411.42c4.8-.48,9.82-2.64,15.06-6.47,7.62-5.49,12.61-14.25,14.98-26.3.79-4.8,1.04-8.72.74-11.76-1.27-12.62-7.84-18.34-19.73-17.15l-17.06,1.71-9.91,61.58,15.93-1.6Z"/>
    <polygon class="st2" points="848.93 549.62 891.31 288.8 963.75 281.53 930.56 485.13 1018.54 476.29 1008.97 533.56 848.93 549.62"/>
    <path class="st0" d="M233.7,221.91l13.16-19.97c.8-1.11,1.72-1.34,2.76-.69,1.01.74,1.17,1.68.48,2.83l-5.41,8.21,20.07,13.23c1.21.87,1.46,1.87.74,3.01-.8,1.11-1.83,1.29-3.08.53l-20.08-13.23-5.41,8.21c-.79,1.09-1.72,1.31-2.8.67-1-.7-1.15-1.64-.45-2.81"/>
    <path class="st0" d="M261.01,182.73c2.78-3.38,5.84-5.22,9.17-5.51,3.32-.29,6.77.99,10.32,3.84l11.18,9.07c1.12.99,1.26,2.01.44,3.07-.91,1.02-1.95,1.1-3.12.22l-5.51-4.48-11.84,14.57,5.55,4.5c1.1.97,1.24,1.98.41,3.04-.85,1-1.86,1.06-3.03.19l-11.21-9.1c-1.74-1.41-3.11-2.9-4.12-4.5-.53-.85-.92-1.65-1.17-2.39-.32-.88-.59-2.32-.8-4.33-.19-2.08,1.05-4.81,3.73-8.2M280.46,186.49l-2.78-2.26c-2.54-2.06-4.98-3.01-7.3-2.85-2.33.17-4.45,1.44-6.39,3.83-1.94,2.38-2.75,4.73-2.44,7.03.32,2.31,1.74,4.49,4.29,6.56l2.77,2.26,11.84-14.57Z"/>
    <path class="st0" d="M299.56,142.19c1.3-1.18,2.59-1.12,3.86.19l17.67,18.21c1,1.07,1.02,2.1.09,3.1-1.05.93-2.09.89-3.13-.14l-14.29-14.72-.06.07,3.83,18.07c.19.97,0,1.75-.61,2.33-.62.61-1.39.79-2.31.57l-18.2-4.45-.06.06,14.44,14.88c.97,1.1.99,2.1.08,3.03-1.01.89-2.03.85-3.06-.14l-17.65-18.19c-.58-.6-.88-1.26-.9-1.99-.02-.73.27-1.41.86-2.03.77-.79,1.82-1.02,3.14-.68l19.87,4.94-4.38-19.91c-.25-1.29.01-2.36.81-3.21"/>
    <path class="st0" d="M312.69,131.28c1.06-.82,2.08-.68,3.07.44l16.39,20.08c.89,1.19.84,2.22-.19,3.09-1.12.84-2.15.71-3.1-.41l-16.4-20.08c-.89-1.15-.82-2.19.22-3.12"/>
    <path class="st0" d="M342.23,141.59l14.63-10.34c1.13-.73,2.08-.6,2.85.39.68,1.02.48,1.94-.61,2.78l-16.2,11.45c-1.28.83-2.35.66-3.21-.52l-14.81-20.95c-.81-1.21-.67-2.24.44-3.1,1.11-.75,2.12-.53,3.03.65l13.88,19.63Z"/>
    <path class="st0" d="M373.25,91.14c1.2-.61,2.18-.3,2.93.92l12.61,22.39c.4.7.52,1.35.38,1.95-.14.59-.53,1.07-1.15,1.41-.75.49-1.64.56-2.65.22l-26.52-10.77-.08.05,10.44,18.53c.66,1.3.43,2.29-.69,2.96-1.2.61-2.18.3-2.93-.92l-12.58-22.35c-.37-.71-.48-1.38-.33-2,.15-.61.52-1.09,1.12-1.43.84-.5,1.74-.58,2.7-.23l26.42,10.77.08-.04-10.42-18.5c-.66-1.3-.43-2.28.69-2.96"/>
    <path class="st0" d="M398.54,79.07c4.04-1.69,7.6-1.89,10.68-.6,3.08,1.29,5.53,4.03,7.34,8.21l5.65,13.24c.53,1.39.18,2.36-1.04,2.92-1.28.48-2.24.07-2.87-1.25l-2.79-6.54-17.26,7.37,2.8,6.57c.52,1.37.17,2.33-1.05,2.88-1.22.48-2.14.07-2.77-1.25l-5.67-13.28c-.87-2.06-1.39-4.02-1.54-5.9-.07-1.01-.05-1.89.08-2.66.12-.92.56-2.33,1.31-4.21.8-1.92,3.17-3.76,7.12-5.51M413.99,91.47l-1.41-3.29c-1.28-3.01-3-4.99-5.12-5.92-2.13-.94-4.61-.81-7.44.4-2.82,1.2-4.63,2.9-5.43,5.09-.8,2.18-.55,4.79.73,7.8l1.41,3.29,17.26-7.37Z"/>
    <path class="st0" d="M425.02,69.36l8.94-2.71c2.39-.73,4.65-1.05,6.76-.98,3.22.05,5.91,1.01,8.07,2.88,2.25,1.78,3.89,4.36,4.92,7.76,1.01,3.33,1.09,6.41.23,9.22-.25.83-.74,1.9-1.46,3.2-.76,1.29-2,2.53-3.73,3.73-1.72,1.19-3.76,2.15-6.09,2.85l-8.94,2.72c-1.47.38-2.44-.12-2.89-1.51l-7.37-24.29c-.4-1.41.12-2.36,1.56-2.86M434.44,93.73l7.32-2.22c3.39-1.03,5.8-2.78,7.24-5.23.23-.48.43-.95.6-1.42.17-.48.3-.88.4-1.22.1-.35.15-.75.17-1.22.01-.48.04-.82.06-1.05.02-.23,0-.58-.09-1.07s-.14-.79-.16-.91c-.01-.12-.09-.44-.2-.97-.11-.53-.17-.82-.19-.88-.5-1.65-1.32-3.21-2.44-4.67-1.12-1.43-2.76-2.42-4.92-2.97-2.16-.54-4.45-.41-6.88.39l-7.32,2.22,6.44,21.21Z"/>
    <path class="st0" d="M483.41,54.68c1.32-.22,2.15.38,2.48,1.8l2.83,14.8c.83,4.36.39,7.86-1.32,10.49-1.72,2.63-4.63,4.34-8.76,5.13-4.16.79-7.54.28-10.14-1.53-2.61-1.81-4.32-4.89-5.16-9.25l-2.81-14.75c-.22-1.48.32-2.35,1.64-2.63,1.36-.2,2.21.41,2.54,1.83l2.8,14.71c.59,3.1,1.77,5.31,3.54,6.62,1.77,1.32,4.06,1.71,6.86,1.17,2.78-.53,4.75-1.74,5.89-3.6,1.15-1.87,1.42-4.36.83-7.46l-2.81-14.75c-.22-1.44.32-2.31,1.6-2.58"/>
    <path class="st0" d="M515.81,51.29l13.35-.55c3.21-.14,5.71.55,7.47,2.08,1.77,1.52,2.71,3.8,2.84,6.83.12,3.03-.63,5.38-2.26,7.05-1.63,1.67-4.05,2.57-7.27,2.7l-11.43.48.38,9.24c0,1.49-.66,2.28-2,2.37-1.4,0-2.15-.74-2.23-2.19l-1.07-25.63c-.04-1.46.71-2.25,2.23-2.38M518.35,66l11.03-.46c1.94-.08,3.39-.61,4.39-1.57.99-.97,1.44-2.34,1.37-4.13-.08-1.79-.65-3.11-1.72-4-1.07-.88-2.57-1.28-4.5-1.2l-11.03.46.45,10.9Z"/>
    <path class="st0" d="M551.15,50.48c1.34.07,2.02.85,2.03,2.34l-.78,25.91c-.11,1.48-.83,2.23-2.17,2.21-1.4-.1-2.09-.88-2.08-2.34l.78-25.91c.07-1.46.81-2.19,2.21-2.21"/>
    <path class="st0" d="M590.01,77.21c-.06.5-.2.91-.44,1.21-1.47,1.7-3.35,2.97-5.64,3.81-2.29.84-4.83,1.11-7.61.81-2.31-.25-4.36-.84-6.15-1.77-2.67-1.39-4.7-3.42-6.1-6.08-1.39-2.75-1.9-5.82-1.55-9.2.37-3.44,1.51-6.31,3.43-8.63.59-.74,1.46-1.58,2.6-2.51,1.21-.98,2.8-1.72,4.77-2.23,1.97-.51,4.06-.66,6.25-.42,5.25.56,9.12,2.79,11.6,6.71.27.35.37.81.3,1.38-.22,1.27-.97,1.87-2.26,1.83-.76-.14-1.31-.48-1.64-1.03-1.76-2.94-4.55-4.61-8.37-5.02-3.32-.35-6.13.45-8.43,2.39-1.02.92-1.83,1.92-2.41,3.01-.58,1.1-.94,1.9-1.07,2.43s-.29,1.38-.48,2.55c-.17,1.67-.03,3.45.43,5.36.5,1.79,1.63,3.42,3.39,4.92,1.77,1.49,3.81,2.31,6.13,2.46,3.97.43,7.18-.76,9.64-3.56.44-.53,1.05-.74,1.82-.66,1.28.29,1.88,1.04,1.78,2.26"/>
    <path class="st0" d="M612.99,71.23l9.08,15.73c.32.62.43,1.2.31,1.76-.35,1.33-1.2,1.87-2.54,1.65-.64-.14-1.14-.53-1.48-1.19l-9.05-16.09-5.98,3.02-1.72,8.04c-.37,1.44-1.21,2.04-2.53,1.79-1.35-.35-1.9-1.24-1.62-2.67l5.4-25.36c.33-1.42,1.19-2.01,2.57-1.78,1.3.31,1.83,1.2,1.58,2.67l-2.62,12.28,19.83-10.26c.51-.28,1.07-.4,1.67-.33,1.3.34,1.85,1.16,1.63,2.45-.14.67-.56,1.19-1.25,1.56l-13.27,6.72Z"/>
    <path class="st0" d="M634.67,90.26l17.08,5.43c1.26.47,1.73,1.3,1.41,2.52-.4,1.15-1.26,1.55-2.58,1.19l-18.91-6.02c-1.43-.52-1.94-1.48-1.52-2.88l7.78-24.44c.47-1.38,1.38-1.9,2.73-1.53,1.27.44,1.71,1.38,1.31,2.81l-7.29,22.91Z"/>
    <path class="st0" d="M664.33,100.6l17.08,7.34c1.21.58,1.59,1.46,1.15,2.64-.5,1.11-1.41,1.42-2.69.94l-18.85-8.09c-1.37-.66-1.79-1.67-1.23-3.01l10.02-23.32c.61-1.33,1.61-1.72,3.03-1.18l18.85,8.1c1.24.59,1.63,1.46,1.17,2.59-.55,1.12-1.46,1.45-2.71.97l-17.08-7.34-3.56,8.3,14,6.02c1.27.61,1.67,1.48,1.22,2.61-.53,1.14-1.44,1.46-2.75.96l-14-6.01-3.65,8.5Z"/>
    <path class="st0" d="M714.98,112.94l-.04.08c2.39,2.52,2.7,5.35.95,8.51-1.35,2.42-3.04,3.83-5.08,4.23-2.05.4-4.5-.2-7.37-1.79l-12.46-6.92c-1.3-.79-1.61-1.83-.93-3.12l12.33-22.19c.74-1.26,1.78-1.55,3.14-.86l11.68,6.49c5.68,3.16,7.21,7.08,4.61,11.76-1.56,2.82-3.83,4.09-6.83,3.83M694.55,114.57l10.54,5.86c3.31,1.84,5.72,1.4,7.22-1.31.74-1.33.94-2.42.61-3.29-.61-1.43-1.72-2.59-3.33-3.49l-10.55-5.85-4.49,8.09ZM700.93,103.08l9.88,5.49c3.31,1.84,5.69,1.44,7.16-1.19.75-1.35.94-2.44.58-3.26-.6-1.38-1.72-2.54-3.35-3.45l-9.89-5.49-4.38,7.89Z"/>
    <path class="st0" d="M746.85,115.48c3.57,2.54,5.61,5.46,6.14,8.76.53,3.29-.5,6.82-3.1,10.57l-8.27,11.78c-.9,1.19-1.91,1.41-3.03.66-1.09-.84-1.23-1.87-.45-3.1l4.08-5.82-15.37-10.78-4.11,5.86c-.89,1.16-1.89,1.37-3,.62-1.06-.78-1.19-1.78-.4-3.01l8.29-11.82c1.28-1.83,2.68-3.31,4.19-4.43.81-.6,1.59-1.04,2.3-1.34.86-.38,2.28-.75,4.27-1.1,2.05-.34,4.87.71,8.44,3.14M744.47,135.15l2.05-2.93c1.88-2.68,2.65-5.18,2.33-7.49-.33-2.3-1.75-4.34-4.27-6.1-2.51-1.76-4.91-2.41-7.19-1.93-2.28.48-4.37,2.05-6.25,4.74l-2.05,2.93,15.37,10.78Z"/>
    <path class="st0" d="M753.3,153.76l13.56,11.72c.98.92,1.07,1.87.3,2.86-.82.91-1.77.93-2.85.08l-15.01-12.97c-1.12-1.04-1.2-2.12-.27-3.24l16.78-19.41c.98-1.09,2.02-1.19,3.11-.32.99.9,1.03,1.94.1,3.1l-15.73,18.19Z"/>
    <path class="st0" d="M776.5,174.97l12.39,12.95c.88,1.01.89,1.97.03,2.88-.91.83-1.85.76-2.84-.19l-13.72-14.34c-1.01-1.14-.99-2.23.04-3.25l18.55-17.73c1.07-.99,2.12-.99,3.13-.03.91.99.84,2.03-.19,3.09l-17.38,16.62Z"/>
    <path class="st0" d="M366.12,695.57l11.6,6.63c2.79,1.59,4.53,3.51,5.21,5.74.68,2.22.27,4.66-1.23,7.29-1.51,2.64-3.39,4.23-5.67,4.77-2.26.54-4.79.01-7.58-1.59l-9.94-5.68-4.59,8.04c-.79,1.26-1.77,1.57-2.95.94-1.18-.75-1.43-1.77-.73-3.05l12.73-22.27c.75-1.25,1.8-1.53,3.15-.82M360.45,709.37l9.59,5.48c1.68.96,3.19,1.3,4.55,1,1.35-.29,2.46-1.21,3.35-2.76.89-1.56,1.12-2.99.68-4.3-.43-1.31-1.49-2.44-3.17-3.41l-9.59-5.48-5.41,9.47Z"/>
    <path class="st0" d="M402.07,734.25l2.85,10.48c.14.62.1,1.19-.12,1.71-.59,1.24-1.52,1.6-2.8,1.1-.72-.3-1.17-.86-1.33-1.73l-3.29-13.22-8.2-3.67-3.87,8.66c-.66,1.33-1.61,1.74-2.85,1.22-1.25-.62-1.59-1.61-1.02-2.96l10.47-23.42c.62-1.32,1.64-1.7,3.05-1.13l12.04,5.38c2.94,1.31,4.87,3.01,5.79,5.08.92,2.08.77,4.45-.43,7.15-2.09,4.68-5.51,6.44-10.24,5.27l-.04.08ZM390.76,725.37l9.92,4.43c3.62,1.61,6.15.81,7.6-2.43,1.46-3.27.37-5.71-3.24-7.32l-9.91-4.43-4.36,9.75Z"/>
    <path class="st0" d="M419.51,749.67l17.64,5.87c1.25.48,1.71,1.32,1.38,2.52-.42,1.15-1.28,1.54-2.6,1.16l-19.47-6.47c-1.43-.53-1.92-1.5-1.48-2.9l8-24.09c.49-1.38,1.46-1.85,2.93-1.43l19.47,6.47c1.28.49,1.74,1.31,1.38,2.49-.45,1.17-1.32,1.57-2.61,1.2l-17.64-5.87-2.85,8.57,14.47,4.81c1.3.5,1.78,1.33,1.43,2.5-.43,1.17-1.31,1.57-2.66,1.19l-14.46-4.81-2.92,8.78Z"/>
    <path class="st0" d="M483.84,739.54c1.71.43,2.37,1.53,2,3.3l-5.28,24.83c-.33,1.43-1.17,2.03-2.53,1.79-1.35-.35-1.9-1.24-1.62-2.67l4.26-20.07-.09-.02-12.87,13.26c-.7.71-1.46.97-2.27.8-.84-.18-1.43-.72-1.76-1.61l-6.46-17.59h-.09s-4.31,20.27-4.31,20.27c-.36,1.41-1.18,2-2.47,1.76-1.3-.34-1.83-1.21-1.59-2.62l5.26-24.79c.17-.81.56-1.43,1.15-1.86.59-.42,1.31-.55,2.16-.41,1.09.2,1.86.94,2.31,2.23l6.97,19.25,14.1-14.73c.92-.94,1.97-1.3,3.11-1.12"/>
    <path class="st0" d="M497.94,741.35c1.33.2,1.92,1.04,1.8,2.52l-3.25,25.72c-.25,1.47-1.04,2.13-2.37,2-1.38-.24-2-1.08-1.85-2.53l3.25-25.72c.22-1.44,1.02-2.1,2.41-1.99"/>
    <path class="st0" d="M512.2,769.32l18.57,1.04c1.33.14,2,.83,1.98,2.08-.09,1.22-.83,1.82-2.21,1.8l-20.48-1.15c-1.51-.14-2.25-.94-2.2-2.41l1.42-25.34c.11-1.46.92-2.18,2.44-2.15l20.48,1.15c1.36.14,2.03.81,1.99,2.03-.13,1.25-.86,1.86-2.21,1.85l-18.56-1.04-.5,9.02,15.22.85c1.39.14,2.07.81,2.03,2.04-.1,1.25-.85,1.86-2.25,1.84l-15.22-.84-.51,9.23Z"/>
    <path class="st0" d="M560.93,761.71l7.24,8.09c.4.49.63,1.02.65,1.59.03,1.37-.64,2.11-2,2.23-.78.06-1.43-.25-1.97-.94l-8.86-10.36-8.97.39.41,9.46c0,1.49-.66,2.28-2,2.37-1.4,0-2.15-.73-2.24-2.18l-1.1-25.63c-.04-1.46.71-2.26,2.22-2.38l13.18-.57c3.21-.14,5.69.52,7.45,1.96,1.74,1.45,2.68,3.64,2.81,6.59.22,5.12-2.05,8.22-6.8,9.29v.09ZM546.84,758.83l10.85-.47c3.96-.17,5.87-2.03,5.71-5.57-.15-3.57-2.21-5.27-6.17-5.1l-10.85.46.46,10.67Z"/>
    <path class="st0" d="M598.83,765.5l17.62-3.24c1.33-.18,2.14.33,2.42,1.56.19,1.2-.37,1.96-1.72,2.27l-19.52,3.59c-1.51.22-2.4-.4-2.7-1.82l-4.64-25.23c-.23-1.43.33-2.31,1.7-2.62,1.32-.22,2.15.4,2.48,1.86l4.35,23.65Z"/>
    <path class="st0" d="M631.3,758.6l17.89-5.07c1.3-.31,2.15.13,2.56,1.32.3,1.18-.19,1.99-1.5,2.42l-19.73,5.59c-1.48.35-2.44-.17-2.86-1.56l-6.92-24.42c-.37-1.42.17-2.36,1.61-2.83l19.74-5.59c1.33-.32,2.18.11,2.54,1.28.28,1.22-.21,2.04-1.48,2.46l-17.89,5.07,2.47,8.69,14.66-4.15c1.36-.32,2.23.09,2.59,1.26.31,1.21-.19,2.04-1.53,2.48l-14.67,4.15,2.52,8.9Z"/>
    <path class="st0" d="M663.36,720.1c4.09-1.59,7.65-1.69,10.69-.32,3.05,1.38,5.42,4.17,7.13,8.4l5.3,13.38c.5,1.41.12,2.37-1.11,2.9-1.3.45-2.24,0-2.83-1.33l-2.62-6.61-17.46,6.92,2.64,6.65c.48,1.38.11,2.33-1.13,2.85-1.23.46-2.14.02-2.73-1.32l-5.32-13.42c-.82-2.08-1.29-4.05-1.39-5.94-.05-1,0-1.89.15-2.65.14-.92.62-2.31,1.42-4.17.85-1.9,3.27-3.68,7.27-5.33M678.48,732.91l-1.32-3.32c-1.2-3.05-2.86-5.07-4.97-6.06-2.11-.99-4.59-.92-7.45.21-2.85,1.13-4.71,2.78-5.56,4.94-.86,2.16-.68,4.77.53,7.82l1.32,3.32,17.45-6.91Z"/>
    <path class="st0" d="M717.61,713.06l.17.32c1.39,2.64,1.91,5.31,1.55,8.02-.1.83-.38,1.89-.85,3.18-.45,1.32-1.33,2.67-2.65,4.07-1.31,1.41-2.9,2.59-4.78,3.58-2.05,1.09-4.09,1.74-6.1,1.95-2.99.33-5.81-.22-8.45-1.66-2.69-1.51-4.82-3.78-6.41-6.78-1.61-3.06-2.26-6.08-1.95-9.07.07-.94.33-2.13.76-3.53.46-1.49,1.37-3,2.72-4.52,1.35-1.52,3.01-2.8,4.95-3.82,1.08-.58,2.23-1.04,3.45-1.42,1.05-.31,2.46-.53,4.25-.67,1.67-.14,3.46.22,5.36,1.07.49.22.85.56,1.1,1.04.52,1.18.25,2.09-.82,2.75-.63.27-1.22.31-1.75.12-3.19-1.38-6.44-1.2-9.73.53-2.95,1.56-4.84,3.78-5.67,6.68-.35,1.33-.45,2.6-.32,3.83.12,1.23.28,2.1.46,2.61.19.5.53,1.3,1.03,2.39.79,1.48,1.89,2.88,3.33,4.21,1.41,1.2,3.27,1.94,5.56,2.2,2.29.25,4.44-.2,6.46-1.36,2.58-1.36,4.35-3.15,5.3-5.37.95-2.22.99-4.55.11-6.98l-6.17,3.26c-1.23.61-2.15.35-2.77-.76-.56-1.12-.24-2.01.97-2.68l7.83-4.12c1.34-.64,2.37-.32,3.08.95"/>
    <path class="st0" d="M735.63,681.09c1.13-.72,2.13-.5,2.99.68l8.4,12.5c2.48,3.69,3.45,7.08,2.9,10.17-.54,3.09-2.55,5.81-6.04,8.15-3.51,2.36-6.82,3.22-9.92,2.58-3.11-.64-5.9-2.81-8.38-6.49l-8.38-12.46c-.78-1.28-.62-2.29.48-3.06,1.17-.71,2.18-.48,3.05.69l8.35,12.43c1.76,2.62,3.71,4.2,5.85,4.71,2.14.51,4.4-.02,6.78-1.62,2.35-1.58,3.68-3.45,4.01-5.62.32-2.17-.4-4.56-2.17-7.19l-8.38-12.47c-.76-1.24-.61-2.24.46-3"/>
    <path class="st0" d="M764.37,692.21l14.31-11.86c1.07-.81,2.03-.75,2.88.17.76.96.62,1.9-.4,2.82l-15.79,13.09c-1.21.93-2.29.84-3.24-.27l-16.2-19.55c-.92-1.15-.8-2.22.33-3.24l15.79-13.09c1.1-.82,2.04-.78,2.85.14.75,1,.63,1.95-.36,2.85l-14.32,11.86,5.77,6.95,11.73-9.72c1.12-.85,2.08-.81,2.88.11.78.99.64,1.95-.4,2.88l-11.73,9.73,5.9,7.12Z"/>
    <polygon class="st0" points="219.67 259.59 223.44 271.21 235.66 271.21 225.78 278.4 229.55 290.02 219.67 282.83 209.78 290.02 213.55 278.4 203.67 271.21 215.89 271.21 219.67 259.59"/>
    <polygon class="st0" points="830.49 199.42 834.27 211.04 846.49 211.04 836.61 218.22 840.38 229.84 830.49 222.66 820.61 229.84 824.38 218.22 814.5 211.04 826.72 211.04 830.49 199.42"/>
    <polygon class="st0" points="810.03 620.65 813.8 632.27 826.02 632.27 816.14 639.46 819.91 651.08 810.03 643.89 800.15 651.08 803.92 639.46 794.03 632.27 806.25 632.27 810.03 620.65"/>
    <polygon class="st0" points="321.89 667.55 325.66 679.17 337.88 679.17 328 686.36 331.77 697.98 321.89 690.79 312 697.98 315.77 686.36 305.89 679.17 318.11 679.17 321.89 667.55"/>
    <polygon class="st5" points="366.58 492.02 365.34 492.16 365.9 496.2 366.58 492.02"/>
    <polygon class="st5" points="88.57 625.96 160.63 618.72 177.94 513.75 105.5 522.09 88.57 625.96"/>
    <polygon class="st5" points="365.9 496.2 365.35 492.16 322.58 497.09 337.73 600.94 414.34 593.25 432.17 484.46 366.59 492.01 365.9 496.2"/>
    <polygon class="st5" points="224.34 612.33 289.94 605.74 307.47 498.83 241.55 506.42 224.34 612.33"/>
    <path class="st5" d="M444.67,590.21c2.02-.2,4.36-.44,7.01-.71,2.66-.27,6.13-.61,10.43-1.05,1.01-.1,2.52-.25,4.56-.45,1.26-.13,3.03-.31,5.31-.53,1.52-.15,3.66-.37,6.45-.65,1.51-.15,3.91-.4,7.2-.72,2.03-.21,4.8-.48,8.35-.84,3.03-.3,7.58-.76,13.65-1.37,6.07-.61,9.23-.92,9.48-.95l16.02-99.96,26.55-2.67c21.74-2.18,40.17-7.81,55.29-16.9l-152.58,17.57-17.7,109.23Z"/>
    <path class="st5" d="M646.8,569.91c2.02-.2,4.36-.44,7.01-.71,2.66-.27,6.13-.61,10.43-1.05,1.01-.1,2.53-.25,4.56-.45,1.26-.13,3.03-.31,5.31-.53,1.52-.15,3.66-.37,6.45-.65,1.51-.15,3.91-.4,7.2-.72,2.03-.21,4.8-.48,8.35-.84,3.03-.3,7.58-.76,13.65-1.37,6.07-.61,9.23-.92,9.49-.95l16.01-99.96,26.55-2.67c24.49-2.46,44.77-9.31,60.86-20.54l-157.65,18.16-18.2,112.27Z"/>
    <polygon class="st5" points="940.21 425.94 867.67 434.29 848.93 549.62 1008.97 533.56 1018.54 476.3 930.56 485.13 940.21 425.94"/>
  </g>
</svg>